<svg xmlns="http://www.w3.org/2000/svg" viewBox="0 0 800 520" width="800" height="520"><title>Placeholder: city-vilnius – replace with a real photo (see config/images.ts)</title><defs><linearGradient id="c2" x1="0" y1="0" x2="0" y2="1"><stop offset="0" stop-color="#E7F1F3"/><stop offset="1" stop-color="#F6F1E7"/></linearGradient></defs><rect width="800" height="520" fill="url(#c2)"/><rect x="320" y="145.6" width="56" height="260" fill="#F5F1E8"/><polygon points="320,145.6 348,83.2 376,145.6" fill="#7E8C88"/>
<rect x="392" y="260" width="96" height="145.6" fill="#F7F4EE"/><polygon points="384,260 440,213.2 496,260" fill="#EDE7DB"/><rect x="16" y="301.6" width="88" height="104" fill="#EFE6D6"/><polygon points="12,301.6 60,262 108,301.6" fill="#B5553B" opacity=".85"/><rect x="112" y="270.4" width="88" height="135.2" fill="#E4D8C2"/><polygon points="108,270.4 156,230.8 204,270.4" fill="#B5553B" opacity=".85"/><rect x="216" y="239.2" width="88" height="166.4" fill="#F3ECDF"/><polygon points="212,239.2 260,199.6 308,239.2" fill="#B5553B" opacity=".85"/><rect x="496" y="301.6" width="88" height="104" fill="#EFE6D6"/><polygon points="492,301.6 540,262 588,301.6" fill="#B5553B" opacity=".85"/><rect x="600" y="270.4" width="88" height="135.2" fill="#E4D8C2"/><polygon points="596,270.4 644,230.8 692,270.4" fill="#B5553B" opacity=".85"/><rect x="696" y="239.2" width="88" height="166.4" fill="#F3ECDF"/><polygon points="692,239.2 740,199.6 788,239.2" fill="#B5553B" opacity=".85"/><rect y="405.6" width="800" height="114.4" fill="#B9C9A8"/></svg>
