<svg xmlns="http://www.w3.org/2000/svg" viewBox="0 0 960 720" width="960" height="720"><title>Placeholder: kitchen-after – replace with a real photo (see config/images.ts)</title><defs>
<linearGradient id="gw" x1="0" y1="0" x2="0" y2="1"><stop offset="0" stop-color="#F6F3ED"/><stop offset="1" stop-color="#EAE3D8"/></linearGradient>
<linearGradient id="gf" x1="0" y1="0" x2="0" y2="1"><stop offset="0" stop-color="#DBC6A4"/><stop offset="1" stop-color="#C9B18B"/></linearGradient>
<linearGradient id="gs" x1="0" y1="0" x2="1" y2="1"><stop offset="0" stop-color="#FFFFFF"/><stop offset="1" stop-color="#D5E6EA"/></linearGradient>
<linearGradient id="gl" x1="0" y1="0" x2="1" y2="1"><stop offset="0" stop-color="#FFF9EC" stop-opacity=".95"/><stop offset="1" stop-color="#FFF9EC" stop-opacity="0"/></linearGradient>
<clipPath id="gc"><rect x="67.2" y="72" width="259.2" height="324"/></clipPath></defs>
<rect width="960" height="518.4" fill="url(#gw)"/><rect y="518.4" width="960" height="201.6" fill="url(#gf)"/><line x1="0" x2="960" y1="552" y2="552" stroke="#3A2A10" stroke-opacity=".06"/><line x1="0" x2="960" y1="585.6" y2="585.6" stroke="#3A2A10" stroke-opacity=".06"/><line x1="0" x2="960" y1="619.2" y2="619.2" stroke="#3A2A10" stroke-opacity=".06"/><line x1="0" x2="960" y1="652.8" y2="652.8" stroke="#3A2A10" stroke-opacity=".06"/><line x1="0" x2="960" y1="686.4" y2="686.4" stroke="#3A2A10" stroke-opacity=".06"/><rect y="511.4" width="960" height="7" fill="#F9F7F2"/>
<rect x="60.2" y="65" width="273.2" height="338" rx="3" fill="#FCFBF8"/><rect x="67.2" y="72" width="259.2" height="324" fill="url(#gs)"/>
<g clip-path="url(#gc)"><circle cx="119" cy="379.8" r="77.8" fill="#A9C4A0" opacity=".55"/><circle cx="261.6" cy="412.2" r="90.7" fill="#9DBB93" opacity=".5"/></g>
<rect x="194.8" y="72" width="4" height="324" fill="#FCFBF8"/><rect x="67.2" y="208.1" width="259.2" height="4" fill="#FCFBF8"/>
<rect x="336.4" y="56" width="48" height="454.4" rx="5" fill="#E9E1D3"/>
<polygon points="67.2,518.4 326.4,518.4 652.8,720 115.2,720" fill="url(#gl)" opacity="0.8"/><rect x="403.2" y="43.2" width="556.8" height="144" fill="#F8F5EF"/>
<rect x="403.2" y="187.2" width="556.8" height="151.2" fill="#EEE9E0"/><line x1="403.2" x2="403.2" y1="187.2" y2="338.4" stroke="#D8CFC0" stroke-opacity=".7"/><line x1="451.2" x2="451.2" y1="187.2" y2="338.4" stroke="#D8CFC0" stroke-opacity=".7"/><line x1="499.2" x2="499.2" y1="187.2" y2="338.4" stroke="#D8CFC0" stroke-opacity=".7"/><line x1="547.2" x2="547.2" y1="187.2" y2="338.4" stroke="#D8CFC0" stroke-opacity=".7"/><line x1="595.2" x2="595.2" y1="187.2" y2="338.4" stroke="#D8CFC0" stroke-opacity=".7"/><line x1="643.2" x2="643.2" y1="187.2" y2="338.4" stroke="#D8CFC0" stroke-opacity=".7"/><line x1="691.2" x2="691.2" y1="187.2" y2="338.4" stroke="#D8CFC0" stroke-opacity=".7"/><line x1="739.2" x2="739.2" y1="187.2" y2="338.4" stroke="#D8CFC0" stroke-opacity=".7"/><line x1="787.2" x2="787.2" y1="187.2" y2="338.4" stroke="#D8CFC0" stroke-opacity=".7"/><line x1="835.2" x2="835.2" y1="187.2" y2="338.4" stroke="#D8CFC0" stroke-opacity=".7"/><line x1="883.2" x2="883.2" y1="187.2" y2="338.4" stroke="#D8CFC0" stroke-opacity=".7"/><line x1="931.2" x2="931.2" y1="187.2" y2="338.4" stroke="#D8CFC0" stroke-opacity=".7"/><rect x="397.2" y="338.4" width="562.8" height="25.2" fill="#CBC0AF"/>
<rect x="403.2" y="363.6" width="556.8" height="154.8" fill="#F3EFE8"/>
<rect x="598.8" y="388.8" width="165.6" height="100.8" rx="4" fill="#2E3431"/>
<rect x="768" y="288" width="57.6" height="50.4" rx="6" fill="#2F4A43"/><rect x="653.5" y="290.4" width="36.9" height="48" rx="7.4" fill="#D9CDBB"/><ellipse cx="655.4" cy="264.6" rx="14.8" ry="33.2" transform="rotate(-25 655.4 264.6)" fill="#5F8A5B"/><ellipse cx="688.6" cy="260.9" rx="14.8" ry="35.1" transform="rotate(28 688.6 260.9)" fill="#6E9A68"/><ellipse cx="672" cy="246.1" rx="12.9" ry="36.9" fill="#4F7A4C"/></svg>
